<svg id="visual" viewBox="0 0 900 600" width="900" height="600" xmlns="http://www.w3.org/2000/svg" xmlns:xlink="http://www.w3.org/1999/xlink" version="1.1"><rect x="0" y="0" width="900" height="600" fill="#1c398e"></rect><defs><linearGradient id="grad1_0" x1="33.3%" y1="0%" x2="100%" y2="100%"><stop offset="20%" stop-color="#001b52" stop-opacity="1"></stop><stop offset="80%" stop-color="#001b52" stop-opacity="1"></stop></linearGradient></defs><defs><linearGradient id="grad1_1" x1="33.3%" y1="0%" x2="100%" y2="100%"><stop offset="20%" stop-color="#001b52" stop-opacity="1"></stop><stop offset="80%" stop-color="#0d2a6f" stop-opacity="1"></stop></linearGradient></defs><defs><linearGradient id="grad1_2" x1="33.3%" y1="0%" x2="100%" y2="100%"><stop offset="20%" stop-color="#1c398e" stop-opacity="1"></stop><stop offset="80%" stop-color="#0d2a6f" stop-opacity="1"></stop></linearGradient></defs><defs><linearGradient id="grad2_0" x1="0%" y1="0%" x2="66.7%" y2="100%"><stop offset="20%" stop-color="#001b52" stop-opacity="1"></stop><stop offset="80%" stop-color="#001b52" stop-opacity="1"></stop></linearGradient></defs><defs><linearGradient id="grad2_1" x1="0%" y1="0%" x2="66.7%" y2="100%"><stop offset="20%" stop-color="#0d2a6f" stop-opacity="1"></stop><stop offset="80%" stop-color="#001b52" stop-opacity="1"></stop></linearGradient></defs><defs><linearGradient id="grad2_2" x1="0%" y1="0%" x2="66.7%" y2="100%"><stop offset="20%" stop-color="#0d2a6f" stop-opacity="1"></stop><stop offset="80%" stop-color="#1c398e" stop-opacity="1"></stop></linearGradient></defs><g transform="translate(900, 0)"><path d="M0 513.8C-67.2 506.7 -134.4 499.5 -196.6 474.7C-258.8 449.8 -316.1 407.3 -355.7 355.7C-395.3 304 -417.3 243.3 -440.7 182.5C-464.1 121.7 -488.9 60.9 -513.8 0L0 0Z" fill="#15317e"></path><path d="M0 342.5C-44.8 337.8 -89.6 333 -131.1 316.5C-172.6 299.9 -210.7 271.5 -237.1 237.1C-263.5 202.7 -278.2 162.2 -293.8 121.7C-309.4 81.2 -326 40.6 -342.5 0L0 0Z" fill="#052260"></path><path d="M0 171.3C-22.4 168.9 -44.8 166.5 -65.5 158.2C-86.3 149.9 -105.4 135.8 -118.6 118.6C-131.8 101.3 -139.1 81.1 -146.9 60.8C-154.7 40.6 -163 20.3 -171.3 0L0 0Z" fill="#001b52"></path></g><g transform="translate(0, 600)"><path d="M0 -513.8C59.8 -490.7 119.5 -467.7 185.2 -447.2C250.9 -426.7 322.5 -408.7 363.3 -363.3C404.1 -317.9 414.3 -245 434.2 -179.9C454.2 -114.7 484 -57.4 513.8 0L0 0Z" fill="#15317e"></path><path d="M0 -342.5C39.8 -327.1 79.7 -311.8 123.5 -298.1C167.3 -284.4 215 -272.5 242.2 -242.2C269.4 -211.9 276.2 -163.3 289.5 -119.9C302.8 -76.5 322.7 -38.2 342.5 0L0 0Z" fill="#052260"></path><path d="M0 -171.3C19.9 -163.6 39.8 -155.9 61.7 -149.1C83.6 -142.2 107.5 -136.2 121.1 -121.1C134.7 -106 138.1 -81.7 144.7 -60C151.4 -38.2 161.3 -19.1 171.3 0L0 0Z" fill="#001b52"></path></g></svg>