<svg id="visual" viewBox="0 0 960 540" width="960" height="540" xmlns="http://www.w3.org/2000/svg" xmlns:xlink="http://www.w3.org/1999/xlink" version="1.1"><path d="M825 540L837.7 517.5C850.3 495 875.7 450 888.3 405C901 360 901 315 896.3 270C891.7 225 882.3 180 871.2 135C860 90 847 45 840.5 22.5L834 0L960 0L960 22.5C960 45 960 90 960 135C960 180 960 225 960 270C960 315 960 360 960 405C960 450 960 495 960 517.5L960 540Z" fill="#4c61ae"></path><path d="M681 540L689 517.5C697 495 713 450 669.7 405C626.3 360 523.7 315 490 270C456.3 225 491.7 180 523.7 135C555.7 90 584.3 45 598.7 22.5L613 0L835 0L841.5 22.5C848 45 861 90 872.2 135C883.3 180 892.7 225 897.3 270C902 315 902 360 889.3 405C876.7 450 851.3 495 838.7 517.5L826 540Z" fill="#364d9e"></path><path d="M508 540L516 517.5C524 495 540 450 492 405C444 360 332 315 292 270C252 225 284 180 324 135C364 90 412 45 436 22.5L460 0L614 0L599.7 22.5C585.3 45 556.7 90 524.7 135C492.7 180 457.3 225 491 270C524.7 315 627.3 360 670.7 405C714 450 698 495 690 517.5L682 540Z" fill="#1c398e"></path><path d="M354 540L362 517.5C370 495 386 450 352.5 405C319 360 236 315 194.5 270C153 225 153 180 185 135C217 90 281 45 313 22.5L345 0L461 0L437 22.5C413 45 365 90 325 135C285 180 253 225 293 270C333 315 445 360 493 405C541 450 525 495 517 517.5L509 540Z" fill="#14327b"></path><path d="M0 540L0 517.5C0 495 0 450 0 405C0 360 0 315 0 270C0 225 0 180 0 135C0 90 0 45 0 22.5L0 0L346 0L314 22.5C282 45 218 90 186 135C154 180 154 225 195.5 270C237 315 320 360 353.5 405C387 450 371 495 363 517.5L355 540Z" fill="#0e2b69"></path></svg>